<svg xmlns="http://www.w3.org/2000/svg" width="860" height="330" viewBox="0 0 860 330" font-family="ui-monospace, SFMono-Regular, Menlo, Consolas, monospace">
<title>Five seeds</title>
<defs><filter id="glow" filterUnits="userSpaceOnUse" x="0" y="0" width="860" height="330"><feGaussianBlur stdDeviation="2" result="b"/><feMerge><feMergeNode in="b"/><feMergeNode in="SourceGraphic"/></feMerge></filter>
<marker id="arrow" viewBox="0 0 10 10" refX="9" refY="5" markerWidth="7" markerHeight="7" orient="auto-start-reverse"><path d="M0,0 L10,5 L0,10 z" fill="#9fb3c8"/></marker></defs>
<rect x="0.5" y="0.5" width="859" height="329" rx="16" fill="#0b0d13" stroke="#00f0ff" stroke-opacity="0.25"/>
<rect x="70" y="40" width="660" height="230" rx="6" fill="#141826" fill-opacity="1" stroke="none" stroke-width="1" stroke-opacity="1"/><line x1="70" y1="270" x2="730" y2="270" stroke="#9fb3c8" stroke-width="1" stroke-opacity="0.12"/><text x="64" y="274" font-size="10" fill="#9fb3c8" fill-opacity="1" text-anchor="end" font-weight="normal">0</text><line x1="70" y1="193.3" x2="730" y2="193.3" stroke="#9fb3c8" stroke-width="1" stroke-opacity="0.12"/><text x="64" y="197.3" font-size="10" fill="#9fb3c8" fill-opacity="1" text-anchor="end" font-weight="normal">300</text><line x1="70" y1="116.7" x2="730" y2="116.7" stroke="#9fb3c8" stroke-width="1" stroke-opacity="0.12"/><text x="64" y="120.7" font-size="10" fill="#9fb3c8" fill-opacity="1" text-anchor="end" font-weight="normal">600</text><line x1="70" y1="40" x2="730" y2="40" stroke="#9fb3c8" stroke-width="1" stroke-opacity="0.12"/><text x="64" y="44" font-size="10" fill="#9fb3c8" fill-opacity="1" text-anchor="end" font-weight="normal">900</text><text x="70" y="285" font-size="10" fill="#9fb3c8" fill-opacity="1" text-anchor="middle" font-weight="normal">gen 1</text><text x="196.7" y="285" font-size="10" fill="#9fb3c8" fill-opacity="1" text-anchor="middle" font-weight="normal">gen 20</text><text x="330" y="285" font-size="10" fill="#9fb3c8" fill-opacity="1" text-anchor="middle" font-weight="normal">gen 40</text><text x="463.3" y="285" font-size="10" fill="#9fb3c8" fill-opacity="1" text-anchor="middle" font-weight="normal">gen 60</text><text x="596.7" y="285" font-size="10" fill="#9fb3c8" fill-opacity="1" text-anchor="middle" font-weight="normal">gen 80</text><text x="730" y="285" font-size="10" fill="#9fb3c8" fill-opacity="1" text-anchor="middle" font-weight="normal">gen 100</text><path d="M70,266.9L76.7,266.7L83.3,262.6L90,261.7L96.7,259.9L103.3,259L110,259L116.7,259L123.3,259L130,259L136.7,259L143.3,259L150,259L156.7,259L163.3,259L170,259L176.7,259L183.3,259L190,259L196.7,259L203.3,259L210,259L216.7,259L223.3,259L230,259L236.7,259L243.3,259L250,259L256.7,259L263.3,259L270,259L276.7,259L283.3,259L290,259L296.7,259L303.3,259L310,259L316.7,259L323.3,259L330,259L336.7,259L343.3,259L350,259L356.7,259L363.3,259L370,259L376.7,259L383.3,259L390,259L396.7,259L403.3,259L410,259L416.7,259L423.3,259L430,259L436.7,259L443.3,259L450,259L456.7,259L463.3,259L470,259L476.7,259L483.3,259L490,259L496.7,259L503.3,259L510,259L516.7,259L523.3,259L530,259L536.7,259L543.3,259L550,259L556.7,259L563.3,259L570,259L576.7,259L583.3,259L590,259L596.7,259L603.3,259L610,259L616.7,259L623.3,259L630,259L636.7,259L643.3,259L650,259L656.7,259L663.3,259L670,259L676.7,259L683.3,259L690,259L696.7,259L703.3,259L710,259L716.7,259L723.3,259L730,259" stroke="#ff2e63" stroke-width="2" stroke-opacity="1" fill="none" fill-opacity="1" stroke-linejoin="round" filter="url(#glow)"/><path d="M70,265.6L76.7,259.3L83.3,259.3L90,258L96.7,255.8L103.3,255.7L110,250.9L116.7,151.4L123.3,143.5L130,143.5L136.7,143.5L143.3,110L150,94L156.7,91.6L163.3,83.6L170,83.6L176.7,83.6L183.3,71.1L190,71.1L196.7,64.7L203.3,64.7L210,64.7L216.7,64.7L223.3,64.7L230,64.7L236.7,64.7L243.3,63.9L250,62.7L256.7,62.6L263.3,62L270,62L276.7,62L283.3,61.5L290,60.4L296.7,60.4L303.3,59.4L310,59.4L316.7,58.9L323.3,58.9L330,58.9L336.7,58.9L343.3,58.9L350,58.9L356.7,58.9L363.3,57.7L370,57.7L376.7,57.7L383.3,57.7L390,56.5L396.7,56.4L403.3,56.4L410,56.2L416.7,56.2L423.3,56L430,55.5L436.7,55.5L443.3,55.3L450,55.3L456.7,55.3L463.3,55.3L470,54.8L476.7,54.8L483.3,54.1L490,54.1L496.7,51.3L503.3,51.3L510,51.2L516.7,50.1L523.3,50.1L530,50.1L536.7,50.1L543.3,49.9L550,49.4L556.7,49.4L563.3,49.4L570,49.4L576.7,49.4L583.3,49.4L590,49.4L596.7,49.4L603.3,48.8L610,48.8L616.7,48.8L623.3,48.8L630,48.8L636.7,48.7L643.3,48.7L650,48.7L656.7,48.1L663.3,48.1L670,48.1L676.7,48.1L683.3,48.1L690,48.1L696.7,48.1L703.3,48.1L710,48.1L716.7,48.1L723.3,48.1L730,48.1" stroke="#ffd23f" stroke-width="2" stroke-opacity="1" fill="none" fill-opacity="1" stroke-linejoin="round" filter="url(#glow)"/><path d="M70,259.5L76.7,259.3L83.3,259.1L90,259L96.7,255.9L103.3,255.9L110,255.9L116.7,255.9L123.3,255.9L130,255.9L136.7,255.9L143.3,255.9L150,255.9L156.7,255.9L163.3,255.9L170,255.9L176.7,255.9L183.3,255.9L190,255.9L196.7,255.9L203.3,177.7L210,172.5L216.7,130.4L223.3,130.4L230,130.4L236.7,130.4L243.3,130.4L250,130.4L256.7,130.4L263.3,130.4L270,127.1L276.7,127.1L283.3,126.9L290,120.3L296.7,116.9L303.3,115.3L310,111.8L316.7,111.6L323.3,110.8L330,110.8L336.7,110.8L343.3,108.4L350,100.1L356.7,100.1L363.3,100.1L370,99.4L376.7,99.4L383.3,89.8L390,89.8L396.7,89.8L403.3,86L410,85.5L416.7,81.6L423.3,80.7L430,79.4L436.7,77.9L443.3,77.8L450,77.8L456.7,77.8L463.3,77.8L470,77.8L476.7,77.8L483.3,77.8L490,73.8L496.7,72.6L503.3,72.6L510,71.2L516.7,70.4L523.3,69.8L530,69.1L536.7,68.8L543.3,68.8L550,68.8L556.7,64L563.3,61.5L570,61.5L576.7,61.4L583.3,60.5L590,59.9L596.7,59.9L603.3,59.4L610,59L616.7,59L623.3,59L630,59L636.7,59L643.3,59L650,59L656.7,59L663.3,59L670,59L676.7,58.5L683.3,58.5L690,58.5L696.7,58.5L703.3,58.2L710,58.2L716.7,58.2L723.3,58.2L730,58.2" stroke="#39ff88" stroke-width="2" stroke-opacity="1" fill="none" fill-opacity="1" stroke-linejoin="round" filter="url(#glow)"/><path d="M70,259.3L76.7,259.1L83.3,256.2L90,256.2L96.7,256.2L103.3,256.2L110,256.2L116.7,256.1L123.3,256.1L130,256.1L136.7,256L143.3,255.9L150,255.9L156.7,255.4L163.3,255L170,255L176.7,255L183.3,250.7L190,250.7L196.7,250.7L203.3,250.7L210,86.8L216.7,86.8L223.3,86.8L230,86.8L236.7,86.8L243.3,81.3L250,74L256.7,69.6L263.3,65.5L270,61.9L276.7,61.9L283.3,61.9L290,59.5L296.7,59.5L303.3,59.5L310,59.5L316.7,59.5L323.3,59.5L330,59.5L336.7,57.9L343.3,57.9L350,57.9L356.7,57.9L363.3,57.9L370,57.9L376.7,55.6L383.3,55.4L390,55.4L396.7,55.4L403.3,55.4L410,54.9L416.7,53.8L423.3,53.8L430,53.8L436.7,52.9L443.3,52.9L450,52.9L456.7,52.9L463.3,51.9L470,51.9L476.7,51.6L483.3,51.6L490,51.6L496.7,51.6L503.3,51L510,50.9L516.7,50.4L523.3,50.1L530,50.1L536.7,49.9L543.3,49.4L550,49.1L556.7,49.1L563.3,48.8L570,48.8L576.7,48.8L583.3,48.8L590,48.8L596.7,48.8L603.3,48.8L610,48.8L616.7,48.8L623.3,48.8L630,48.8L636.7,48.7L643.3,48.7L650,48.7L656.7,48.7L663.3,48.7L670,48.7L676.7,48.7L683.3,48.7L690,48.7L696.7,48.7L703.3,48.7L710,48.7L716.7,48.7L723.3,48.7L730,48.7" stroke="#ff4dd8" stroke-width="2" stroke-opacity="1" fill="none" fill-opacity="1" stroke-linejoin="round" filter="url(#glow)"/><path d="M70,256.2L76.7,256L83.3,255L90,195.6L96.7,177L103.3,139.8L110,119.6L116.7,90.6L123.3,66.9L130,58.4L136.7,55.6L143.3,55.6L150,51.4L156.7,51.4L163.3,51.4L170,51.4L176.7,51.4L183.3,51.4L190,51L196.7,50L203.3,50L210,50L216.7,49.7L223.3,49.7L230,49.3L236.7,49.3L243.3,49.1L250,49.1L256.7,49.1L263.3,48.9L270,48.9L276.7,48.6L283.3,48.6L290,48.6L296.7,48.3L303.3,48.3L310,48.3L316.7,48.3L323.3,48.3L330,48.1L336.7,48.1L343.3,48.1L350,48.1L356.7,48.1L363.3,47.9L370,47L376.7,47L383.3,47L390,47L396.7,47L403.3,47L410,47L416.7,47L423.3,47L430,47L436.7,47L443.3,47L450,47L456.7,47L463.3,47L470,47L476.7,46.7L483.3,46.7L490,46.7L496.7,46.7L503.3,46.7L510,46.7L516.7,46.7L523.3,46.7L530,46.7L536.7,46.7L543.3,46.7L550,46.7L556.7,46.7L563.3,46.7L570,46.7L576.7,46.7L583.3,46.7L590,46.7L596.7,46.7L603.3,46.7L610,46.7L616.7,46.7L623.3,46.7L630,46.7L636.7,46.7L643.3,46.7L650,46.7L656.7,46.7L663.3,46.4L670,46.4L676.7,46.4L683.3,46.4L690,46.4L696.7,46.4L703.3,46.4L710,46.4L716.7,46.4L723.3,46.4L730,46.3" stroke="#00f0ff" stroke-width="3" stroke-opacity="1" fill="none" fill-opacity="1" stroke-linejoin="round" filter="url(#glow)"/><text x="736" y="50.3" font-size="10" fill="#00f0ff" fill-opacity="1" text-anchor="start" font-weight="normal">seed 3</text><text x="736" y="62.3" font-size="10" fill="#ffd23f" fill-opacity="1" text-anchor="start" font-weight="normal">seed 2</text><text x="736" y="74.3" font-size="10" fill="#ff4dd8" fill-opacity="1" text-anchor="start" font-weight="normal">seed 5</text><text x="736" y="86.3" font-size="10" fill="#39ff88" fill-opacity="1" text-anchor="start" font-weight="normal">seed 4</text><text x="736" y="263" font-size="10" fill="#ff2e63" fill-opacity="1" text-anchor="start" font-weight="normal">seed 1</text><text x="70" y="32" font-size="12" fill="#00f0ff" fill-opacity="1" text-anchor="start" font-weight="bold">best fitness per generation, all 5 seeds</text>
<text x="400" y="315" font-size="12" fill="#ff2e63" fill-opacity="1" text-anchor="middle" font-weight="normal">seed 1 (pink, bottom): 43.0 from generation 6 to 100, never a lap</text>
</svg>
